<svg height="298.646" width="298.646" xmlns="http://www.w3.org/2000/svg" xmlns:xlink="http://www.w3.org/1999/xlink"><radialGradient id="a" cx="298.66852" cy="309.10764" gradientTransform="matrix(.2436217 .8776417 -1.1344403 .3149057 586.4121 -25.658023)" gradientUnits="userSpaceOnUse" r="130.08176"><stop offset="0" stop-color="#fff" stop-opacity=".867347"/><stop offset="1" stop-color="#fff" stop-opacity="0"/></radialGradient><radialGradient id="b" cx="317.86237" cy="249.47238" gradientTransform="matrix(.9225535 .5499376 -.6128212 1.0614374 218.04449 -49.879453)" gradientUnits="userSpaceOnUse" r="141.81195" spreadMethod="reflect"><stop offset="0" stop-color="#b8ff71"/><stop offset="1" stop-color="#6c0"/></radialGradient><radialGradient id="c" cx="298.10294" cy="315.40961" gradientTransform="matrix(1.131046 0 0 1.131204 -22.100471 -17.655402)" gradientUnits="userSpaceOnUse" r="149.30214"><stop offset="0" stop-color="#007fff"/><stop offset=".39285713" stop-color="#1c8eff"/><stop offset="1" stop-color="#1a4a7a"/></radialGradient><g transform="translate(-212.19409 -266.24278)"><path d="m361.52327 266.24278c-26.48089 0-51.31104 6.96561-72.88163 19.07754-.01352.00752-.04066-.0076-.05409 0-13.95806 7.84313-26.44554 17.93047-37.17023 29.67005-24.26295 26.5592-39.22323 61.78897-39.22323 100.57545 0 82.43629 66.91921 149.32287 149.32918 149.32295 2.59366 0 5.11061-.2475 7.67175-.37835 4.12117-.21072 8.1835-.54189 12.20992-1.08096 37.33634-4.99641 70.31477-23.69696 93.62781-51.01741 22.25945-26.08553 35.76562-59.88746 35.76562-96.84623 0-18.86127-3.60747-36.82951-9.99493-53.44931-3.13272-8.15143-7.00475-15.9552-11.45359-23.34696-19.28032-32.03439-50.14768-56.19931-86.87454-66.69-13.03822-3.72418-26.72391-5.83677-40.95204-5.83677z" fill="url(#c)"/><path d="m340.37797 270.94518c-.53748 0-1.38775.0981-1.75243.58444-.35197.46939-.68987 1.07936-1.07078 1.46029-.22822.22827-.4672.87639-1.07094.87639-.3483 0-1.50179-.18792-1.75229 0-.46412.34834-1.11886.67898-1.26556 1.26576-.18838.75367-.82657.63186-1.36278 1.16827-.30271.30282-1.0106.86135-1.46031.97381-.58787.14689-1.10375.29187-1.75235.29202-.49352 0-1.17891-.11892-1.655 0-.7773.19439-1.18422.90474-1.84958 1.07101-.60493.15129-.87906.39324-1.16828.77897-.37359.49812-1.24225.77882-1.84965.77882-.93276 0-.97328.17022-1.65501.68155-.48424.36323-1.33055.48679-1.94708.48679-.82768 0-2.00038.02659-2.72578.38937-.49389.2472-1.1487.34082-1.36286.87647-.34195.85488-.62856.94706-1.46029 1.36325-.48387.24203-1.55039.57662-1.94707.97336-.30247.30274-.47035 1.38035-.876 1.46068.02863.01717.63783.54872.77871.58405.59866.14985 1.37744.09742 2.04436.09742.80608 0 1.50956.09742 2.33636.09742.71097 0 1.1336-.48687 1.75236-.48687.82867 0 1.65358-.0003 2.43379.19477.6504.16253 1.26326.38944 1.94692.38944.72399 0 1.13203-.03959 1.75238-.19476.7873-.19689 1.26138-.15669 1.65499-.68147.3463-.46194.63815-.7463 1.07086-1.07115.34584-.25936 1.65508-1.65514 1.94701-1.65529.72554 0 1.25585-.21626 1.94693-.3893.47497-.11877.49358-1.26447.97364-1.16842.28198.05647.8606.75861 1.16815.68155.26769-.06702.59902-.13974.87622-.09719.27719.0421.50166.25397.58414.58406.16219.64887.34928.62805.68136 1.071.16278.2171.97125 1.17784.87614 1.55794-.11553.46279-.22576 1.23864-.09713 1.75241.12883.51604.15335 1.08596.38927 1.55794.1577.31551.60322 1.04972.68151 1.36302.15247.61051.49172.59425.77886 1.16843.34181.68405.17176.98208-.09735 1.65513-.23024.57577-.5659 1.24213-.38959 1.94739.03649.14544.06117.34104.09751.48686.10872.43566.17116.67153.29208.77875.12068.1073.29034.0975.77862.0975.5745 0 1.36638.00341 1.65502.29195.39025.39051.77893.60981.77893 1.16841 0 .40199-.22216 1.47421-.58429 1.65522-.26171.131-1.07072.83398-1.07072 1.26568 0 .54227.09729 1.15437.09729 1.65521 0 .10942-.02655.28367 0 .3896.16159.64644.29911 1.4742.58415 2.04458.22439.44872.72763.84546.97357 1.46052.21723.5434.23868 1.35376.48672 1.84997.27405.54827.54817.99934.77877 1.46038.27316.54637.43745 1.60589.87616 2.0448.51699.51704.72374.86773 1.16836 1.46038.38143.5089.86597 1.15823 1.26534 1.55779.35482.35503.71665.81408 1.16846 1.26576.92967.93004 1.49108 1.47588 2.62834 2.04473.58243.29134 1.25893.58072 1.84965.87624.66767.33397 1.23208.77814 1.75237 1.16842.59162.44378 1.20672 1.08551 2.04442.87623.726-.1816 1.84323-.04544 2.53108-.38959.22627-.113.47535-.18664.68142-.38922.20631-.20267.38129-.50313.19465-.87654-.15164-.30336-.48671-.79614-.48671-1.26554 0-.79781-.19464-1.51577-.19464-2.33668 0-.58163-.03485-1.02936.09728-1.55802.10438-.41795.13392-1.0213 0-1.55771-.16487-.66028-.03096-1.29252-.19464-1.9474-.13594-.54393-.09736-1.24448-.09736-1.84981 0-.56742-.03231-1.03901.09736-1.55779.15246-.60998.09736-1.24601.09736-1.84998 0-.51787-.08667-1.09258.09728-1.46052.18792-.376.434-1.28058.97351-1.4606.45538-.15167 2.04443-.49584 2.04443-1.07084 0-.64121-.06101-1.12002-.19479-1.65522-.15381-.61529-.55738-1.22161-.19464-1.94731.41695-.8343 1.23334-1.06051 1.75236-1.75255.29543-.39416.80712-.80724 1.26535-1.26584.34449-.34431 1.10085-.64371 1.26573-.97358.21356-.42714.48678-1.0631.48678-1.55795 0-.34856.15149-1.57937-.19478-1.75255-.50384-.25183-1.07079-.16338-1.07079-.77889 0-.40913.44148-1.35604.29207-1.65521-.23613-.47258-.49943-.87943-1.26565-1.07093-.60374-.15098-1.43397-.26741-2.04428-.38944-.36969-.07394-1.21076-.1826-1.36293-.48679-.17341-.34697-.34255-1.29122-.68142-1.46068-.55232-.27622-1.17615-.29195-1.84981-.29195-.17019 0-2.27079-.50335-1.55742-.68141.70909-.17743.68808-.3057.97335-.87646.16189-.32379.48716-.87579.19471-1.26568-.4073-.54348-.96176-.76728-1.36293-1.1685-.53247-.53268-1.76575-.77882-2.53107-.77882-.10902 0-.18627.02644-.29207 0-.43138-.1079-.83337-.54142-1.16822-.87632-.49621-.49658-1.39516-.71399-2.04436-.87623-.49136-.12281-.7921-.53892-1.36286-.68171-.56305-.14058-1.16657-.14529-1.75236-.29194-.76487-.19135-1.58106-.33589-2.33651-.48703-.28048-.05593-2.26113-.20266-2.14172-.6814.07313-.29294.44926-.97358.87615-.97358.58579 0 1.27776.11451 1.84979 0 .74649-.1494 1.51241-.29233 2.33652-.29211.75171 0 1.50843.04856 2.23884.1947.91301.18275 1.92435.06724 2.8233.29209.70618.17653 1.79416.29204 2.53107.29204 1.0381 0 2.24723-.09742 3.31001-.09742 1.6236 0 3.0738-.3893 4.67279-.3893.92521 0 1.2415-.56407 1.94708-.68155.35751-.05965.66175-.16277.77872-.29226.11716-.1291.0151-.26391-.48672-.38945-.61061-.15259-1.31471.06064-1.94701-.09734-.47519-.11877-1.23004-.29187-1.75228-.29187-.75126 0-1.39442-.09743-2.14172-.09743-.5348 0-1.0174.15678-1.5575.29196-.71163.17804-1.39531 0-2.1418 0-.76412 0-1.57245 0-2.3365 0-1.04603 0-2.14464-.19453-3.11522-.19453-.6326 0-1.25137-.09743-1.75236-.09743-.99452 0-2.14733-.0028-2.92058-.38944-.72083-.36072-1.24373-.57889-2.04436-.77905-.37006-.09256-1.22826-1.07115-1.55758-1.07115zm62.11013 1.16842c-1.22026.25426-2.48009.40099-3.60201.68178-1.41924.35472-2.29426 1.00838-3.60193.6814-.9098-.22744-1.77383-.29629-2.72586-.48687.30897.3092.16038.71218-.09736 1.071-.25775.35898-.67978.63178-.87622.77897-.02871.0215-2.24461.26916-2.33644.29218-.52753.13185-.32197.48695 0 .87624.32214.38953.81558.73946.97366.77889 1.20373.30115 2.72287 1.02078 3.79657 1.55779.46151.23086.67754.41309.77872.68163.10139.2684.08868.64653.19478 1.07108.20937.83779.33185 1.09076 1.07094 1.46045.64635.32326 2.09678.38952 2.82314.38952 1.17682 0 2.91707.58308 3.79672.87616.74148.2472 1.84254 1.06402 2.33636 1.55787.51288.51316 1.00207.81681 1.55772 1.55794.64344.85801 1.29459 1.32877 2.14164 1.75241.7322.36627 1.87694.35441 2.33644.58413.83613.41825 1.85211 1.07358 2.43386 1.65529.68614.68641 1.23147 1.32883 1.75222 1.84997.67641.67653.83883 1.4324 1.655 2.04465.83547.62684 1.5062 1.11682 2.1418 1.75264.73721.73725 1.3959 1.10382 2.04443 1.75239.51012.51034 1.01515 1.25171 1.84964 1.4606 1.13524.28383 1.85729-.43998 2.82323-.68155.47318-.11855 2.18591 1.66387 2.43364 1.85004.57419.43034 1.12866 1.28393 1.36307 1.75249.26651.53337 1.16957 1.26727 1.55758 1.6552.75015.75024.92834.90238 1.84965 1.36303.37761.18883.80824.22007 1.16807.09734.36019-.12234.60814-.38846.68157-.68171.2034-.81369.51558-1.24767.292-2.14184-.13161-.52692-.04987-1.12678.19465-1.55787.24488-.43101.64313-.65206 1.36307-.2921.51423.25745.84144 1.09889 1.07093 1.55795.32348.64757.77871 1.50398.77871 2.43386v2.23958c0 .35456 4.09456 2.63456 4.18609 2.72629.52485.52463 1.2323.85405 1.84957 1.26561.67948.45312 1.11857.90017 2.04435 1.36318.525.26255.80795.74956.97366 1.26568.16554.51612.20458 1.03149.09735 1.46045-.12016.48124.28655 1.58006.09736 2.33684-.14663.58702-.25498 1.0523-.19471 1.3631.06011.3108.31122.44766.97342.77882.96049.48026 1.32353 1.2422 2.33644 1.84997.52985.31802.94545 4.03293 1.26564 4.6736.36887.73786.78298 1.73538.58408 2.53145-.21595.86393-.58408 1.5049-.58408 2.4341 0 .66225-.51909 1.58986-.6815 2.23942-.15471.61985-.44932 1.27428-.58414 1.75256-.13474.4782-.10955.79348.58414 1.07099.9018.36088 2.38571.7789 3.30986.7789h2.92058c.46436 0 .93305.93209 1.36293 1.94732.43003 1.01522.79126 2.10681.87629 2.53152.17999.90116.41583 1.29205.97344 1.84989.73129.73163 1.80036 1.36061 2.04442 2.33676.27839 1.11447.66297 1.39967.19465 2.33677-.22785.45602-1.82767.81658-2.33643 1.071-.73034.36528-1.95785.49857-3.01787.77897-.52993.1402-1.01119.34492-1.363.58414-.3516.23913-.58408.55548-.58408.97365 0 .95314.38361 1.35155.77894 2.142.42988.86036.82738 1.52497 1.36286 2.23941.08741.11642.18902.28656.29207.38945.59372.59394.5312 1.51987 1.07093 2.23935.74395.9928 1.11124 1.83355 1.65479 2.92112.52343 1.04692 1.70465 1.85187 2.33642 3.11543.35294.70618.97366 2.05081.97366 3.01847 0 .76339.40281 1.51386.58406 2.23942.13826.55327.69984 1.09068 1.26558 1.46052.56591.36969 1.13921.64979 1.655.77882.911.22782 1.96772.09727 2.92058.09727 1.00895 0 1.62712-.29188 2.53108-.29188.52118 0 1.26049-1.35635 1.55764-1.7527.65047-.86751 1.02906-1.39031 1.26551-2.33661.12749-.51035.26036-1.0194.29215-1.5581.03148-.53832-.07113-1.0444-.4868-1.46029-.35428-.3545-.41455-.70382-.38943-1.07123.02506-.36696.13542-.73201.38943-1.07085.1364-.18199.19465-2.51511.19465-2.62887 0-.09437-1.23627-1.64852-1.46021-1.94724-.54684-.72927-.68526-1.66234-1.07094-2.43417-.4159-.83232-.48672-1.56289-.48672-2.6288 0-.82343 0-1.6106 0-2.43417 0-1.11386-.50943-1.48295-1.07093-2.04459-.59103-.5912-.56702-1.10002-.77871-1.94739-.14544-.58132-.07822-.92214.09729-1.16827.17564-.24635.51445-.41034.87613-.6817.59918-.44933.77886-1.39731.77886-2.14185-.00014-.53748-.16861-1.08126-.19464-1.4606-.02616-.37941.05803-.67174.48672-.77882.39443-.09886.84107.2257 1.16814.58406.32722.35844.54773.79531.68143.97373.50721.67647.61114 1.06675 1.26573 1.55779.87936.65989 2.16265.98407 2.92057 1.36326.80122.40077 1.53409.80975 2.14165 1.26561.75283.56483 1.38139 1.08962 1.84956 1.55772.44716.44727.57742 1.32176.97366 1.85004.41515.55374.88122.68642 1.36285 1.1685.51984.51992.81535 1.53363 1.07093 2.04458.28311.56643.48021.78634.68129.77889.20144-.00745.45142-.2744.87629-.48679.26866-.13457-.41845-2.16054-.48679-2.43417-.19015-.76089-1.26326-1.84496-1.55757-2.43411-.31429-.62867-.21288-.89752 0-.87639.21259.02143.55946.26756.77871.48686.64404.64417 1.25862.86218 1.75235 1.84998.21387.42767 1.02698 1.027 1.46031 1.46052.63446.63474.54644 1.21279.77877 2.14215.08219.32865.28722.40723.4868.38922.19942-.01763.44677-.18154.68157-.38922.46936-.41581.95211-1.02875 1.07071-1.26576.2911-.58246.37829-1.23225.58407-1.84998.26815-.80473.13707-1.49935-.09721-2.14207-.23456-.6428-.62705-1.2267-.87629-1.84997-.22283-.55716-.56731-1.04319-.87614-1.55786-.93611-1.56038-1.71124-3.03314-2.531-4.67345-.04023-.08024-.05794-.11391-.09743-.19484-19.28025-32.03425-50.11046-56.20418-86.83738-66.69494zm-95.0149 12.85215c-.49 0-1.27178.92829-1.5575 1.07123-.62684.31338-1.28135 1.03399-1.84987 1.46029-.59124.44363-1.0912.8428-1.65477 1.26577-.64318.48253-1.06982.58428-2.04446.58428-.92453.00023-.94527.4238-1.65499.77897-.83014.41506-1.59766 1.73507-1.94705 2.43395-.32916.65876-.80164 1.48325-1.16816 1.84997-.4456.44577-1.23981.7172-1.75232.97374-.61121.3054-.38935 1.51212-.38935 2.142 0 .4209-1.6408.48694-1.75232.48694-.22333 0-1.51713-1.90681-1.65501-2.04481-.68854-.68885-.3302-.81271-1.36295-1.07107-.55911-.13975-1.01366-.0921-1.26557-.19469-.25181-.10258-.38936-.37805-.38936-1.07093 0-.75116.89912-1.09402 1.26556-1.4606.44551-.44537 1.32248-.75868 1.75232-.97357.62628-.31338.89034-.89031 1.36288-1.36319.58692-.58702.68148-1.26211.68148-2.14199 0-.27448-1.38508-.83863-1.655-.97359-.61809-.3092-1.01064-.9922-1.75231-1.36317-.01344.00767-.08399-.00745-.09741 0-13.9579 7.84297-26.46351 17.85941-37.18814 29.59893-.11965.60146-.17553 1.3248-.38948 1.75247-.40869.81795-.98214.98233-1.55763 1.55802-.43081.43086-.65958 1.23628-.97343 1.65528-.45201.60253-1.13737.84531-1.65494 1.36295-.50167.50177-.48668 1.64298-.48668 2.33692 0 .6567.29017.89843.58399.87609.29377-.02227.54911-.31923.7789-.77882.28424-.56886 1.70854-1.45193 2.23906-1.84997.72789-.54621 1.76446-.90041 2.1417-1.65521.34102-.68216.6663-1.10748.87615-1.94724.27888-1.11598.89589-1.59716 1.4602-2.72644.20171.63027.53139 1.40771 1.16828 2.04481.29131.2915.4275.71362.38942 1.07108-.03813.35738-.25038.69538-.38942.97343-.21908.43861-1.10065 1.10086-1.55769 1.55801-.55355.55382-.85815.54812-1.16809 1.1685-.33476.66954-.89093.83711-1.07086 1.55764-.16822.6732-.51313 1.1767-.68141 1.84982-.24023.96112-.08084 1.5413-.77892 2.23957-.47339.47349-.74127 1.40733-.87626 1.94739-.23927.95793-.66923 1.20778-1.26547 1.65498-.64984.48778-.8846 1.49396-1.07095 2.23964-.24384.97571-1.40476 2.03053-1.84964 2.9209-.38219.76468-.68239.87806-1.07078 1.65528-.26977.53992-.30882 1.43006-.48687 2.14186-.19747.79022-.64214 1.5378-1.16816 2.23934-.08721.11664-.28645.18929-.38935.29218-.51974.52-.87616 1.71973-.87616 2.43411 0 .66505-.89675 1.83469-1.07084 2.53144-.237.9479-.42295 1.72208-.77896 2.43403-.4392.8789-.85536 1.22427-1.26553 2.04474-.45116.90283-.71426 1.42883-1.07079 2.14207-.28641.57327-.292 1.39608-.292 2.14215 0 .65579-.2286 1.69313-.38937 2.33661-.17837.71339 0 1.69754 0 2.43426 0 .95436-.34129 1.50953-.87627 2.04458-.62697.62714-1.02803.99691-1.26552 1.94739-.15033.60161-.55275 1.39776-.87611 2.04443-.42796.85602-.47983 1.35352-1.07101 2.14215-.44569.5944-.76898 1.51858-.97346 2.33669-.21727.86939-.28774 1.54905-.68138 2.33676-.39638.7931-.48183 1.34319-.68148 2.14199-.19348.77465-.51905 1.33043-.77884 1.85005-.37545.75101-.3892 1.55666-.58411 2.33685-.21258.85085-.29199 1.87231-.29199 2.7259 0 .74842-.38948 1.66258-.38948 2.5316 0 .89774-.09396 1.64122-.292 2.43418-.19109.76468-.09743 1.58188-.09743 2.43411 0 1.21157-.29199 2.37034-.29199 3.60251 0 .9473.37408 1.10717.5841 1.94732.18482.74007.11089 1.61243.29194 2.33653.08848.35382.19486.64204.19486 1.07139.29416 1.17738 1.07089 1.52549 1.07089 2.72605 0 .9438.09897 1.36964.29188 2.14208.18837.75337 0 1.75088 0 2.53145 0 .77934-.30145 1.79017-.48667 2.53152-.02498.09977 0 .18899 0 .29203 0 .93133-.292 1.91714-.292 2.92089 0 .28587.57618 1.63949.77867 2.04474.3758.75162.58001 1.83302.77886 2.62909.29404 1.17655.62549 2.1961 1.07084 3.31027.35459.8865.39684 1.57626.77879 2.53122.24998.62471-.03831 1.79389.09738 2.33691.1896.75846.19472 1.647.19472 2.4341 0 .88719.19486 1.59001.19486 2.43404-.00016.84302.10479 1.58803.29195 2.33676.2238.89607.09737 1.55802.38941 2.142.49398.9884.95758 1.20216 1.16822 2.04481.21059.84287.50161 1.61683.68153 2.33668.21048.84258 1.0676 1.54586 1.26546 2.33684.27183 1.08734 1.25636 2.05544 1.75228 3.21307.3071.71667.31149 1.59632.58421 2.14201.2586.51734 1.45429.96902 1.84964 1.26568.36947.27713.36759.58885.48674.87632.1192.28762.31747.54188.87616.68155.66876.16717 1.10988.83246 1.55751 1.16826.58948.44234-.30801-1.42716-.4866-2.14192-.2021-.80853-1.01385-1.65734-1.36297-2.23934-.32661-.5447-.04543-1.84328-.29211-2.33684-.40179-.80382-.76203-1.49092-.97359-2.33668-.22495-.90025-.65211-1.73318-.8761-2.62895-.22826-.91407-.57459-1.53871-.97347-2.33668-.47687-.95421-1.07078-1.30421-1.07078-2.43419 0-.72554-.5567-1.98964-.87617-2.62878-.33623-.67259-.19475-2.0268-.19475-2.82363 0-.78239-.2921-1.42177-.2921-2.23927 0-.9656-.26384-1.93189-.4868-2.82363-.20489-.82031-.48656-1.55392-.48656-2.43425 0-.65063.17035-.87085.29194-.7789.12155.09202.19462.51795.19462 1.07123 0 .60571.82155 1.24076.97365 1.84981.21453.85853.36463 1.75051.58405 2.62887.17262.69076-.18819 1.68067 0 2.43426.21538.86211.6816 1.36181.6816 2.33661 0 .814.29188 1.4055.29188 2.14215 0 .53285.64624 1.61121.77885 2.14193.20882.83573.37767 1.7052.58404 2.53151.17496.69926.57345 1.6119.77885 2.43412.16692.66802.58399 1.49258 1.07084 2.14192.42357.56483.50447 1.59305.77896 2.142.43566.8719.64511 1.38772 1.07073 2.23942.34542.69089.59933 1.22921.77886 1.94731.20311.81263.90916 1.91578 1.26551 2.62887.33932.67851.72031 1.42123.87628 2.04466.23003.92114.45401 1.97914.87611 2.82354.34165.68368.67652 1.35323.97347 1.94739.42499.85026.98134 1.46798 1.55758 2.04467.70405.70396 1.68105 1.04387 2.53111 1.46029.85022.41673 1.53438.88019 1.75232 1.75263.18853.75397.80274 1.60559 1.0709 2.14208.39656.7931 1.14148 1.53111 1.75232 2.14207 1.61613 1.61653 2.97988 3.33983 5.06233 4.3815.70519.35251 1.17403.56111 2.04449.77882.87776.21953 1.59167.3092 2.33631.68147.7508.3757 1.44886.48694 2.33649.48694.35299 0 1.2446.82221 1.84969.97358.53929.13504 1.41255-.18252 2.14163 0 1.00238.25054 1.31957-.64378 2.33648-.38937.94155.23534 2.38449 2.3971 3.21247 3.01816.73331.55017 1.49698 1.13012 2.33654 1.84998.76774.65837 1.30149 1.03141 2.23903 1.26576.74692.18693 1.16384.28967 1.75231.58413.62998.31513 1.68869.09735 2.43389.09735.71411 0 1.42971 1.04052 1.84964 1.46059.9978.99805 2.17198 1.56569 2.82306 2.43418.57203.76287.89955 1.77581 1.55769 2.43404.59225.59233 1.42298 1.32564 2.14176 2.04473.59467.59477 1.27331 1.00481 1.4602 1.75224.19989.79995 1.15997 1.1644 1.7524 1.46068.65289.32645 1.53315.52935 2.14175.68148.54293.13587 1.42101 1.33385 1.84963 1.65528.32684.2453 2.00495-.19468 2.53115-.19468.68569 0 1.52758.9985 1.94715 1.55786.47774.63748.77527 1.16827 1.65478 1.16827.90613 0 1.6645-.39887 2.23907-.97381.45584-.45556.58407-1.69259.58407-2.33654 0-.59864 1.54598.7672 1.84972 1.07108.47505.47517 1.0977 1.19517 1.46029 1.55772.6848.68497 1.61725 1.57968 1.94708 2.23942.33081.66179.13894 1.54396.48672 2.23942.38853.77745.70542 1.23247 1.16829 1.84981.49336.65815.4867 1.18864.4867 2.23941 0 .84523.19465 1.51251.19465 2.33676 0 .72069-.61547 1.00201-.77878 1.65529-.1954.78163-.48672 1.32747-.48672 2.33676 0 .69987-1.2655 1.40345-1.2655 2.4341 0 .77906.78088 1.95591.97336 2.72614.22087.88384.46734 2.00583.87629 2.82371.47122.94272 1.20208.81681 1.46013 1.84989.22171.88688.27832 1.79473.48679 2.62879.19629.78558.68883 1.10003.87622 1.84997.16301.65275.6646 1.2489 1.07094 1.65522.50182.50191 1.35731.99652 2.0442 1.16834 1.24478.31109 1.70533.81331 2.33651 1.65528.55439.73938.83426 1.52633 1.65486 2.14208.81609.61217 1.17682.68975 1.75229 1.26561.13138.13131.23523.18913.38951.2921.77653.51787.99091 1.17693 1.94707 1.65529.77573.388 1.44025 1.03915 2.14164 1.46045.88931.53374 1.35351.92007 2.23915 1.36302.76226.38139 1.34798 1.11211 2.04443 1.46052.75777.37912 1.3186.69205 2.23901.87624.74535.14925 1.70106.42524 2.33658.58429.96498.24134 1.89144.41034 2.62836.77882.69249.3462 1.45004 1.15809 1.84964 1.55809.57539.57532 1.53888 1.01272 2.23922 1.3628.52859.26475 1.2581.72662 1.75222.97389.98427.49218 1.37138 1.19889 2.23914 1.84974.66835.50162 1.12508 1.12534 1.65486 1.65521.64584.64622 1.03609 1.52314 1.55764 2.0445.62237.62289.88282 1.29237 1.07095 2.04474.23591.94448.88699 1.48226 1.2655 2.23965.37313.74636 1.44728 1.18308 1.947 1.8499.48477.64636 1.43142.94469 1.947 1.46036.67687.67707 1.27059.88278 1.8498 1.65529.56298.7507 1.16575.971 1.5575 1.3631.55341.55344 1.35433.82321 1.84964 1.07093.14918.07447.24055.13822.38957.19491 4.12096-.21079 8.14231-.53215 12.16881-1.07122.03238-.07759.17169-.10267.19487-.19462.25648-1.02662 1.50912-1.82595 2.04428-2.62887.55357-.83072 1.43165-.92896 2.14165-1.07099.84458-.169 1.21869-.73209 1.84964-1.36303.64382-.64416 1.25937-1.25733 1.84973-2.04466.58234-.77669.79149-1.31523 1.26563-1.94724.5609-.74827.67897-1.45565 1.07086-2.23957.44836-.89721.92229-1.58097 1.65502-1.94731.85235-.42646 1.09754-1.07762 1.84964-1.26561 1.00551-.25168 1.44145-.6526 2.33628-.87639.72518-.18146 1.91815-1.91829 2.33658-2.33676.61451-.61476 1.0328-1.02016 1.65487-1.85005.22955-.30609.41536-.70731.6815-.97365.20585-.25738.37835-.4241.58421-.68156.34531-.43185.3611-1.83363.48657-2.33668.17879-.71553.54294-1.67003.8763-2.33692.34247-.68505.22985-1.62755.58406-2.33661.39422-.78839.64217-1.47922.97366-2.14207.37028-.74091.12113-1.60529.48656-2.33669.37604-.75199.60052-1.4932.87622-2.04465.39473-.78985.25154-1.05049 1.26534-1.5578.5422-.27098 1.09868-1.196 1.55772-1.65514.42839-.42865.66737-1.72405.8763-2.14207.36513-.73041 1.2809-1.37845 1.75228-1.85012.37276-.37288.72466-1.21151 1.07086-1.55771.41419-.41422.47872-1.62337.584-2.04474.16817-.67175.12137-1.4587.2923-2.142.18806-.75283-.54706-1.32587-.8763-1.65529-.62482-.62486-1.04296-1.43932-1.84957-2.04473-.69376-.52038-1.17726-.78778-1.55764-1.16819-.50047-.50054-1.38858-.74288-2.04458-1.07093-.55978-.28016-1.07027-.38952-1.94693-.38952-.8232 0-1.70781 0-2.53108 0-.88789 0-1.35575.19462-2.14178.19462-.83892.00015-1.40055.1949-2.23893.1949-.77184 0-1.56483 0-2.33644 0-.69863 0-1.22565-.38952-2.04451-.38952-.8389 0-.91405-.56954-1.36285-1.16842-.40185-.5361-1.46739-.68155-2.14172-.68155-.9151 0-1.76202-.09742-2.82315-.09742-1.22587 0-1.42911.32516-2.33658.77897-.64202.32114-1.25564.76903-1.65501 1.16842-.46502.46521-1.49192.75268-2.04421.97366-.72607.29043-1.65268.17098-2.33651 0-.46577-.1165-.60882-.4241-.68142-.77904-.07276-.35457 0-.8014 0-1.2657 0-.90154.5303-1.30906 1.07086-1.84981.35166-.35191.29207-1.59456.29207-2.14207 0-1.08794.11792-1.22442-.29207-2.04465-.35206-.7042-1.06727-.97009-1.46037-1.36311-.46585-.46604-.81677-1.3039-1.2655-1.75255-.42914-.42919-.87532-1.26394-1.16821-1.8499-.29029-.58102-1.11655-.8991-1.65502-1.16856-.66953-.33467-1.68872-.44638-2.239-.58407-.6732-.16831-1.63854 0-2.33658 0-.7716 0-1.46724 0-2.23899 0-.82456 0-1.46306.19477-2.23908.19477-.58137 0-1.14197.3893-1.94707.3893-.63448 0-1.22168-.88247-1.65487-1.46045-.56784-.75725-1.26444-.8748-1.75228-1.36304-.5208-.52106-1.14982-.66301-1.55773-1.07099-.48304-.48337-1.80709-.71962-2.43371-.87625-.92079-.23024-1.69165-.45654-2.33651-.77897-.88825-.44423-.92197-.87068-1.36285-1.75262-.37523-.75055-.68158-1.16493-.68158-1.94716 0-.61985-.37837-1.63333-.584-2.04467-.14858-.29749-.39264-.62227-.48671-.77904-.30142-.60305-.04142-.93634.09727-1.16827.13887-.23199.18844-.34248-.38926-.48679-.07015-.01748-1.41992 1.25976-1.55766 1.36319-.61539.46148-1.07766.36657-1.94715.58398-1.28247.32082-1.41811.26467-2.53099-.29211-.46294-.23138-.53966-.50654-.68151-.68147-.14193-.17494-.27526-.27197-.97343-.09743-.71096.17782-1.23948.66849-1.8498.97374-.68875.34446-1.04543.41908-1.65499.87616-.62955.47251-1.75424.82913-2.33644 1.26583-.53719.40298-1.96233-.34848-2.23915-.48671-.73004-.36551-.74984-1.6375-.87614-2.14199-.17042-.68194-.36483-.76499-.58408-.58429-.21894.18047-.48559.67943-.68142 1.071-.25169.50359-.61742.64546-.97342.68148-.35609.03609-.65041-.03314-.97366-.19484-.0913-.04567.09744-2.04565.09744-2.33654 0-.37964-1.22655-1.42146-1.36302-1.55794-.36863-.36877-.60171-.27956-.77879 0-.17691.27972-.321.73976-.48671 1.071-.37919.75876-.39555 1.68614-.58414 2.62887-.15927.79721-.19457 1.63028-.19457 2.43418 0 .55677-.48259.9694-.87613 1.36311-.36566.36588-.42519-.1415-.38944-.87632.03574-.73475.19868-1.63485.09728-2.142-.16398-.82016-.48028-1.53188-.6815-2.33668-.16713-.66887-.13407-1.33932-.38943-1.85005-.24354-.48732-.67208-.08154-1.07079.48694-.3987.5681-.81303 1.34373-.97342 1.55779-.62206.82943-1.96009 1.60749-2.43379 2.23942-.22402.29856-1.49372.79553-1.8498.97357-.81818.40914-1.84777 1.62946-2.53107 2.14193-.64979.48771-.58407 1.87163-.58407 2.62902-.00007.95497.31989.82032-.19472 1.84982-.24272.48543-.63439.46225-.97357.2921-.33918-.17013-.55206-.45464-.68142-.58413-.54138-.54135-.96237-.77616-1.75237-.97366-.86291-.21573-1.53313.21278-2.23908.38922-.95428.23884-1.82369.65086-2.72572.87647-.73085.18283-1.78891-.03343-2.43394-.19469-.54608-.13647-1.06553-.87092-1.55757-1.3631-.62056-.62084-.83471-.82084-1.46029-1.65536-.47374-.63193-.6273-1.07883-1.26555-1.55764-.78395-.58816-.9581-.26117-1.36286-1.07115-.34794-.69606-.5828-1.1669-.97353-1.5578-.39399-.39407-.29204-1.36743-.29204-2.14192 0-.75868-.19482-1.71471-.19482-2.53152 0-.78779-.15552-1.59579-.29194-2.14207-.17104-.68421-.09731-1.65544-.09731-2.33685 0-.57319-.97361-1.14394-1.46038-1.26553-.80696-.20182-1.37699-.38945-2.62841-.38945-1.04252 0-1.88342 0-2.92057 0-.77174 0-1.56466 0-2.33641 0-.58606 0-.73392-.12371-1.07083-.29233-.13341 0-.8763-2.05415-.8763-2.33653 0-.84546-.19462-1.51243-.19462-2.33692 0-.80785-.14839-1.56721-.29213-2.14184-.15855-.63497-.10637-1.39905-.29204-2.14216-.16829-.67327 0-1.63856 0-2.33668 0-.84448.19474-1.24722.19474-2.14208 0-.59918.0973-1.43788.0973-2.142 0-.90594-.5107-1.56987-1.26555-1.94731-.65884-.32957-1.45306-.19477-2.239-.19477-.80436 0-1.3143.20685-2.04446.38938-.82725.20699-1.23349 1.13643-1.55752 1.46075-.5515.55146-.6002 1.42671-.77885 2.14193-.17097.6839-.09731 1.65535-.09731 2.33683 0 .38163-.85478 1.47185-.97365 1.94702-.21561.86323-1.39921 1.38141-1.94689 1.65528-.81215.40632-2.21095-.08321-2.82316-.38945-.50093-.25061-1.39436-1.69677-1.65495-2.04443-.42106-.56164-.88397-.98141-1.26571-1.36341-.51962-.51961-.98823-.79842-1.55745-1.55771-.44278-.59052-.76369-1.23529-.97365-1.65529-.36902-.73824-.47162-1.23536-.8761-2.04466-.36674-.73368-.84857-1.50232-1.26558-2.33653-.46046-.9213-.47659-1.353-1.07097-1.94738-.6154-.61575-.77872-1.47443-.77872-2.33692 0-.86408-.29206-1.77178-.29206-2.62887 0-.78209-.29211-1.51896-.29211-2.33669.00017-.78238 0-1.51903 0-2.33668.00017-.72258.48679-1.3185.48679-2.14207 0-.89851-.19468-1.29639-.19468-2.14208 0-1.01651.08179-1.51858.48679-2.53145.26076-.65215 1.01059-1.14493 1.26553-1.65521.30624-.61262.62948-1.06636 1.07095-1.65521.44598-.595 1.13128-.94083 1.84963-1.16827.71819-.22766 1.4629-.4146 2.14163-.58412 1.05564-.26415 1.94353-.14713 2.92066.09726 1.05927.26497 2.09386.38945 3.21253.38945.53889 0 .79782.26452 1.07079.48671.27301.22242.54083.42479 1.07089.29218.53981-.1351.38949-1.87748.38949-2.33677 0-.55115-.21515-.84044-.19474-1.07091.02029-.23055.26582-.4251.77878-.68171.898-.44887 1.02957-.58414 2.14181-.58414.98259 0 1.90162.19477 2.82304.19477.54585-.00008 1.33963.62121 1.84981.87624.4965.24841.80593.25068 1.16807.29218.36231.04142.6931.17751 1.07092.68148.51767.69044 1.25815 1.16089 1.75231 1.6552.53957.53983 1.5707.83399 2.04445 1.07093.34725.17386.29084 1.9423.38945 2.33684.18791.75215.63385 1.365.97343 2.04465.47427.94873.69647 1.98447 1.07084 2.92105.2681.67023.5194 1.3308.77897 1.8499.40959.81969.64548 1.19912 1.3627 1.55779.59062.2953 1.20071.32462 1.84981.48686.76864.19226 1.39242-.49363 1.75233-.97381.27747-.36999.2022-.92631.09731-1.46029-.10471-.53406-.30444-1.05915-.48675-1.36318-.57591-.96006-.40342-1.89147-.7788-3.01832-.29576-.88748-.91015-1.73279-1.36298-2.33676-.45187-.60268-.53558-1.65559-.87612-2.33669-.36377-.72752-.59277-1.29995-.77879-2.0448-.18335-.73323-.23141-1.50969-.38943-2.142-.24408-.97655.32372-1.78401.97342-2.43396.48186-.48193.5455-.81909.68157-1.36326.77803-.77828 1.19503-1.70839 1.655-2.62863.39253-.78573.58417-1.42261.58417-2.33692 0-.47827.44145-.97852.97343-1.46052.53205-.48178 1.15688-.95823 1.46028-1.36303.56549-.75405 1.34106-1.51432 1.75232-2.33676.34673-.69393 1.034-1.21546 1.26558-2.142.15852-.63505.10633-1.39905.29208-2.14207.20644-.8264.38523-1.54131.58398-2.33669.19899-.79569.18963-1.48066 0-2.23949-.18476-.73932-.49283-1.47268-.77878-2.04467-.38614-.7725-.92056-1.21257-1.36286-1.65528-.34882-.3488-.29192-1.77702-.29192-2.33654 0-.49643 1.48885-.48693 1.94693-.48693.71052 0 1.55287-.46119 2.04435-.58422.45479-.11368 1.08889-1.20436 1.36279-1.75254.34224-.68467.57509-1.32671.77893-2.14216.22015-.88118-.19478-1.56159-.19478-2.33653 0-.66552.73788-1.3913 1.26556-1.65521.75898-.37973 1.21168-.68178 2.14181-.68178.90104 0 1.66075.19476 2.53107.19476 1.04028 0 1.27261-.30609 1.655-1.07085.28834-.57707.19465-1.64898.19465-2.33684 0-.78877-.04958-1.56167-.19465-2.14215-.11814-.47273.09264-.95496.19465-1.36303-.13057-.52303.93872-2.10689 1.07086-2.23926.50846-.5086 1.0692-1.02146 1.75235-1.36318.58519-.29265 1.26378-.77685 1.8498-1.36304.6311-.63154 1.17218-1.36712 1.55757-1.75255.56987-.57038.65174-1.13855 1.16814-1.65528.24355-.2434.13265 1.77953 0 2.04466-.18963.37941-.09256.64644.09728.97381.19001.32698.50623.66164.58422.9735.12668.50647-.08367.84623-.09735 1.07108-.01369.22462.09376.38952.77871.38952.96012 0 1.20396-.26596 1.55772-.97381.37747-.75518 1.05403-.83923 1.75228-1.3631.52874-.3966.82762-1.02215 1.36286-1.55788.62916-.62934 1.06323-.76809 1.65501-1.55778.50952-.67912 1.18901-.69189 1.94701-1.07092 1.06509-.53292.57748-1.2641 1.75228-1.55787.72517-.18139 1.1822-.80671 1.46036-1.36303.29073-.58163-.48671-1.42337-.48671-2.04473 0-.99251-.26838-1.36394-.77887-2.04458-.27546-.36741-.54383-.43421-.77886-.38961-.23494.04461-.39495.20017-.58399.38961-.46406.46414-.68157 1.65482-.97357 2.23926-.40611.81233-.20175 1.34396-.87622 1.85005-.49307.36969-1.79334-1.00451-2.14179-1.26584-.61121-.4586-1.52655-.58421-2.33629-.58421-.49979 0-.75022.19165-.9735.29203-.22336.10053-.44275.08823-.77886-.58405-.26889-.53817-.17534-1.67497-.292-2.14208-.10589-.42319-.3649-.60071-.48686-.77882-.12196-.17812-.04195-.44485.38943-.87639.56448-.56461.87615-.32167.87615-1.36326 0-.78459.67948-1.36197 1.26564-1.65505.76069-.38049.3507-.97359 1.46022-.97359.77272 0 1.57574-.25251 2.04444-.48679.44236-.22151.70363-.52342.68142-.77897-.02198-.25548-.26254-.38945-.77886-.38945-.97395 0-1.53671.58413-2.53108.58413-.6145 0-1.60018.67069-2.14178.7789-.78021.15609-1.52467.08914-2.33629.29218-.83585.20889-1.48287.85755-2.33659 1.07085-.75261.1883-1.69336 1.41957-1.84964 2.04473-.24333.97412-1.03758 1.81661-1.75228 2.53153-.71351.71362-1.06063.7355-1.75236.38944-.0919-.04582 1.04678-1.9964 1.26563-2.4341.50348-1.00702.6676-1.64107 1.55758-2.5316.67568-.67562 1.38246-1.09022 1.94708-1.65513.66312-.66317.97896-1.34008 1.84965-1.55779.88736-.2219 1.88382-.09727 2.82321-.09727.8914-.00023 1.47428-.38968 2.23901-.38968.71171 0 1.51248-.98809 2.14171-1.46021.72114-.54121 1.89422-.51537 2.72594-.68178.94599-.18915 1.33856-.43801 1.65485-1.07093.34846-.69698 1.26887-.58725 1.75252-1.07115.34553-.34576.38734-.71286.48672-.97358.09914-.2605.18155-.45906.68135-.58414.76638-.19156 1.60953-.13465 2.23908-.29195.67312-.16824 1.54119 0 2.23915 0 .54803 0 .91069-.08267 1.07086-.2921.16016-.20951.19478-.56864.19478-.97366 0-.76066-.43916-1.41273-.97358-1.94739-.61352-.61369-.94351-1.20566-1.363-2.04466-.36169-.72373-.69212-1.57929-.97343-2.14208-.33207-.66429-.58422-1.4606-.87621-2.04457-.39266-.78589-1.20127-1.20103-1.84964-1.36326-.66477-.16604-1.47174-.88756-1.84974-1.26569-.45986-.46004-.91202-.92737-1.36285-1.26568-.64658-.48505-.95301-.54303-1.26564-1.16842-.29522-.59074-.70514-1.11842-1.07071-1.8499-.28401-.56787-.69587-.90481-.97366-1.46045-.2952-.59082-.08524-1.53355-.29206-1.94731-.27945-.55921-.48822-1.46342-.77872-2.04458-.32759-.65534-.53532-.77844-.87615-1.46076-.43473-.86947.09826-1.36188-.48693-1.94715-.55469-.55496-.58683-1.02374-1.26558-1.36326-.41627-.20799-.58115-.3991-.77871-.48664-.19763-.08754-.40798-.03952-.87607.19476-.08441.04202-.69533 1.48803-.77893 1.65514-.35324.70677-.84856.84857-1.55757 1.55779-.65392.65412-1.03175 1.09015-1.36302 1.75262-.29281.58588-1.46745.19287-1.84964.0975-.35287-.0883-.41867-.44621-.38934-.87632.02938-.43025.0883-.91263 0-1.26591-.16825-.6732 0-1.63842 0-2.33661.00014-.33458.36527-.34325.77886-.38952.41373-.04636.9317-.15274 1.16821-.38945.29244-.29279.46622-.45647.48678-.68163.02027-.22501-.11238-.50191-.48678-.87616-.43684-.43694-1.53238-.2614-2.04436-.3896-1.08499-.27128-1.51331-.1614-2.33659-.77882-.72868-.54659-1.15289-1.0099-1.36286-1.84989-.13742-.55032-1.29802-.44622-1.84964-.58422-.77766-.19461-1.58285-.19461-2.43371-.19461-.72981-.00022-1.28501.58893-2.04436.77883-.42637.10676-.78567-.07121-1.07086-.09735-.28512-.02622-.51992.03473-.68144.68147-.2143.85687-.55946 1.41091-.87622 2.04459-.26051.52099-.29206 1.37922-.29206 2.14215 0 .94873-.25708 1.11348 0 2.142.17482.69956-.06499 1.62284-.1948 2.142-.19815.79303.19741 1.54723 0 2.33684-.25273 1.01112-.53381 1.36592-.0972 2.23942.40498.81005.83091.98749 1.07079 1.94716.19276.77168-.29208 1.56326-.29208 2.33684 0 .66871-.9794 1.46812-1.26557 1.84989-.35847.47828-.77872 1.29092-.77872 1.94716-.00007.53383-1.26743.92594-1.55772 1.07115-.77333.38672-1.18578 1.02921-1.65495 1.65515-.36473.48633-.38937 1.64305-.38937 2.23949 0 .76195-.1948 1.52716-.1948 2.33669v2.33691c0 .79037.19179 1.18011 0 1.94709-.18431.73755-1.07378 1.21856-1.55751 1.46051-.45584.22805-.8905-.02477-1.16824-.38945-.27766-.36466-.48677-.88588-.48677-1.16826.00008-.82365 0-1.70802 0-2.53167.00008-.65777-.19463-1.43522-.19463-2.14186 0-.82357 0-1.61074 0-2.43432 0-.95277-.29902-1.39039-.48685-2.14186-.1185-.47402-1.19598-1.19615-1.5576-1.55786-.53051-.53056-1.25049-.96613-1.84972-1.26584-.49278-.24628-1.20425-.91234-1.55761-1.26568-.74262-.74295-1.19889-1.03498-1.55758-1.75263-.37086-.74196-1.3398-.87624-2.14178-.87624-.84985.00008-1.68143-.19021-2.33638-.6814-.47126-.35351-.58417-1.5416-.58417-2.04488 0-.97685-.1173-1.75575-.29195-2.62872-.1434-.71674-.05925-1.71023.09732-2.33669.21935-.87806 1.17203-1.56561 1.4602-2.14207.40287-.80603 1.68237-1.39038 2.33646-2.04466.62887-.62905.96672-1.55262 1.75233-2.14215.99497-.74653 2.02869-1.30619 3.11519-1.84997.57427-.2871.64997-1.10497.87622-1.55764.4051-.81051.6558-1.53211 1.16822-2.04473.62818-.62852 1.17909-1.17906 1.75233-1.75271.49717-.4972 1.89046-.38937 2.14176-.38937.34319 0 .96991 1.84268 1.07076 2.04473.21314.42615.37497.66218.68157.77883.30649.11687.77854.08267 1.16819 0 .77917-.16498 1.67647-.57624 2.7258-.87617.58444-.1671 1.28344-1.27465 1.84964-1.55802.55102-.27539.58407-1.56265.58407-2.23934 0-.88832-.09721-1.35581-.09721-2.14193 0-.44157-1.28935-.93672-1.55764-1.07107-.37597-.188-.41105-.62031-.292-1.07092.11874-.45086.41351-.90063.58406-1.071.48239-.48269 1.31688-.81613 1.94694-.97374.83748-.20935 1.60468-.16953 2.23907-.48686.68479-.34234.86673-.76932 1.36308-1.26569.77116-.77145.8487-1.25345 1.07071-2.142.16324-.65306.0765-1.66881.19464-2.14192.19673-.78703.94666-1.52177 1.26565-1.94747.23436-.31255.33103-.58679.58415-.7789.25297-.19217.57793-.2921 1.16829-.2921.56179 0 .92654.02492 1.16813.19484.24153.16961.38323.47455.58409.87616.2884.57715.09743 1.64906.09743 2.33692 0 .82692-.64255 1.12921-1.07094 1.5577-.38757.38764 1.35786 1.21326 1.55764 1.36319.3101.23237.13781.73247-.19463 1.26568-.33261.53322-.81588 1.0476-.87622 1.16842-.25387.50762-.89798 1.01698-1.2655 1.75263-.48911.97829-.58578 1.12002-1.94715 1.46045-.88265.22052-1.60371.89927-2.14164 1.16819-.38435.19233-.3999.46407-.29216.77897.10791.31498.27421.66384.38944.7789.67485.67501.96624.65548 1.84972.87631 1.04933.26255 1.4226-.05022 2.04429.77897.42248.56339.59707.80458.87621 1.36311.39639.79333.85423 1.27533 1.07094 2.14192.09601.38451 1.54179.52767 2.04428.77897.65399.32706 1.67325.39857 2.23915.68163.71658.35837 1.04596.57783 1.84964.77889.64898.16224.86156.48308 1.65493.68156.47371.11854.76697.15449.97358 0 .20661-.15464.28452-.45708.38935-.87624.0869-.34804-.29453-.7795-.68149-1.07093-.38675-.29157-.7699-.43382-.87615-.48701-.81543-.40784-1.13307-.54903-1.65501-1.07093-.42322-.42364-.61278-.79462-.58407-1.07115.02879-.27622.27607-.47076.58407-.77874.29956-.29963.62139-.20487.97366 0 .35204.20471.7473.5526.87606.68148.3374.33755.73393.24392 1.07087 0 .33708-.24394.54107-.70405.58421-.87632.15464-.61908.29193-1.02624.29193-1.94732 0-.96317-.64322-1.12646-.38936-2.14207.10693-.4282-.2564-.74796-.68158-.97358-.42502-.22554-.92444-.40138-1.16807-.58428-.78356-.58756-1.16177-.57077-1.55772-1.36304-.28519-.5706-.09152-.87274.19479-.97335.28632-.10099.65572-.0554.87622 0 .88527.22113 1.04612.65648 1.65478 1.26561.69295.69295.68846 1.07434 1.46036 1.46045.74425.3722.74186.97365 1.55751.97365.51849 0 .58428-1.57032.58428-2.0448 0-.83225-.3895-1.4483-.3895-2.33676 0-.35252.82217-.96242.97359-1.26569.23015-.46065.20742-.86347 0-1.16842-.20758-.30502-.56785-.56779-.77886-.77881-.55499-.55519-1.03109-.79669-1.36295-1.4606-.38023-.7609-1.18728-1.09-1.84963-1.75241-.10006-.20038-.43176.00896-.77886.09726-.34689.08816-.68943.06551-.87615-.68147-.17901-.71703.22777-1.6897.38943-2.33692.18409-.73611.60172-.94614.77886-1.6552.13886-.55595.44387-.71666.58407-.87609.14021-.15958.17026-.34111-.09735-.87646-.18709-.37433-1.18377-.7865-1.55758-.97351-.61944-.31004-1.00865-.81392-1.36301-1.16857-.34127-.34135-.19456-1.81547-.19456-2.33668 0-.38976-.18768-.70238-.48693-.87631-.29903-.17357-.65721-.23125-.97336-.3893-.56007-.28033-1.20231-.29211-2.04458-.29211-.67276 0-1.71079-.13587-2.33628-.29203-.71905-.18002-1.65965.17143-2.14165.29203-.6732.16832-1.63871 0-2.33651 0-.79793 0-1.08341-.29522-1.84964-.48694-.49389-.12348-1.63235.86477-2.04445 1.07092-.41775.20913-.59685.05441-.68127-.29187-.08472-.34667-.09751-.83217-.09751-1.1685 0-.77206 0-1.5647 0-2.33684 0-.32865-.24002-.50419-.58406-.58413-.34398-.07987-.77221-.09742-1.07094-.09742zm84.40366 9.44446c-.41461.0858-.76427.42882-.87622.87616-.12988.51978-.19336 1.26037-.292 1.6553-.03095.12386-1.92531-.24241-3.01793.19484-.46211.18487-1.12477.47592-1.55764.58413-.59424.14848-.41628.57433-.29192 1.07107.15515.62083 1.90132.74303 2.43371.87631.37268.0931.87404.77662 1.2655 1.16842.38958.38983 1.05156.66697 1.46028.97351.31811.23861.65384.94592 1.07087 1.36318.43287.43315 1.17891.63535 1.75228.77882.69422.17371 1.12881-.19461 1.84972-.19461.58819 0 1.10166.29202 1.75237.29202.67409 0 1.14354-.29202 1.75228-.29202.49577 0 .69743-.80003.97351-1.16827.3619-.48284.3895-1.22966.38943-1.85012 0-.57395-.18791-1.14136-.29208-1.55786-.12375-.49523-1.10203-.74349-1.36293-1.26577-.32744-.65526-.34703-.82023-1.07079-1.36303-.49359-.37014-1.38806-.79151-1.75235-.97357-.57869-.28945-1.00095-.53186-1.46036-.8764-.30398-.22819-.76586-.29211-1.26558-.29211-.32737 0-.7432 0-1.07086 0-.14432-.03602-.25125-.02849-.38929 0zm34.26749 12.56013c-.62774.0823-.77878 1.02768-.77863 1.8499 0 .82896-1.11087 1.5878-1.46036 1.84982-.48073.36064 1.94961 1.31522 2.14179 1.36332.82155.20541 1.50441.90436 2.33634 1.07093.60009.12006 1.59408.77395 2.33652 1.07093.42584.17052.55842.79492.68135 1.4606.12331.66544.19465 1.34266.19465 1.75262 0 .84683-.00464 1.73341.19478 2.53152.2081.83225.44245 1.15034.19472 2.14178-.1183.47387-.17572.83558-.19472 1.1685-.01891.33298.03321.61741.38936.97357.63963.63999 2.44059.29887 3.21273 1.07108.76427.76468 1.36099 1.28263 2.23899 2.33676.45039.54059-.04164 1.51608.58408 2.142.4295.42965 1.8536.51035 2.33642.38953.34031-.08519.50309-2.01191.58416-2.33692.10184-.40745.70072-.62061 1.36292-.68147.66214-.0608 1.42321.03024 1.7523.19476.58527.29271.6474 1.20694.48686 1.84989-.12107.48443-.01877.80313.19464 1.07115.21348.26772.52866.50785.87614.68163.64068.32022 1.49753.20958 1.94708.0972.71426-.17866 1.0346-1.19312 1.36286-1.84998.22261-.44522.31765-.78072.38942-1.07092.07179-.29013.12152-.54751.58415-.77897.65466-.32752.95952-.83467.77872-1.55802-.19674-.78779-.41763-1.51661-.77872-2.2392-.48035-.96066-1.49452-1.31575-2.33643-1.94723-.64322-.48292-.57757-.65534-.77893-1.46053-.13505-.54149-1.06265-.96948-1.65486-1.26583-.54518-.27258-.90246-1.23005-1.55757-1.55787-.95182-.47592-1.86453-.61939-2.72594-1.26553-.87577-.65701-1.64491-.89304-2.53108-1.55802-.8564-.64242-1.60781-1.41303-2.33643-2.14193-.71859-.71879-1.422-1.03277-1.947-1.55779-.64457-.64484-1.65419-1.02206-2.33643-1.36318-.88176-.44081-1.37677-.95967-2.14172-1.26576-.924-.36961-1.58165-.46862-2.43394-.68163-.29103-.07257-.6187-.33222-.87592-.48671-.11014-.02759-.20257-.0117-.2923 0zm-85.08494 46.24822c-.26037.26056-.74132.03009-1.07079.19468-.35316.17683-.50458.85003-.58407 1.16857-.13085.52266-.08523 1.00983-.19479 1.55786-.12464.62267.06214 1.61144.19479 2.14186.10492.41999-.56904.94326-.77901 1.3631-.21595.43246-.49299.78734-.77863 1.16842-.33544.44743-.2843 1.42116-.38951 1.94724-.12525.62684-.15605 1.11112-.29199 1.65536-.1032.41247-.09736.82015-.09736 1.26576 0 .33694.80016.54599 1.07093.68155.29035.14515.44394-.20015.58407-.5842.14006-.38436.25709-.84136.48671-1.07108.46982-.46985.71336-.68155 1.36294-.68155.42509 0 .8804-.09734 1.36285-.09734.26994 0 .82411.16862 1.07094.29202.46854.23436.75455.46248 1.07078.7789.37656.37675.2659.82107.8763.97381.49664.12409.81093.38944 1.36278.38944h1.65516 1.26541c.59334 0 .58423-.37751.58423-.97388 0-.52373.07589-.88779.19464-1.36295.12113-.48535-.10484-.80846-.19464-1.16857-.10574-.42281-.79974-.89699-1.07102-1.16819-.605-.60519-1.26909-.50101-1.46022-1.266-.08905-.35562.09736-.88444.09736-1.26553 0-.3709.09729-.75162.09729-1.16834 0-.49841-.31293-.72342-.48664-1.071-.21475-.42942-.61503-.38938-1.07101-.38945-.42846 0-1.03631-.10996-1.46021-.19483-.47924-.0959-.74521-.06376-1.07071-.38953-.35668-.35647-.68158-.3013-.68158-.87617 0-.30076-.20623-.62995-.292-.97357-.10214-.40845-.18506-.55268-.48686-.77897-.18118-.13595-.67261-.09742-.87614-.09742zm144.76134 3.69994c-.49732.07173-.514 1.8771-1.07086 2.43418-.51452.5146-1.03975.65024-1.46029 1.07069-.72269.72305-1.59316 1.3989-2.33644 2.14231-.63685.63709-.74139 1.90194-1.07085 2.72628-.23584.58969 0 1.88098 0 2.53153 0 .82699-.94927 2.12991-1.26557 2.92066-.19846.49645-.36543.7232-.68143.8764-.31599.15335-.72899.1579-1.26557.2921-.87188.21794-1.57673.39894-2.33644.77905-.55476.27729-.9815 1.47625-1.2655 2.04466-.29409.58838-.13182 1.69548-.292 2.33661-.25985 1.03954-.19972 2.21464 0 3.21292.16316.81651.29126 1.55445.48672 2.33698.21147.84586-.15644 1.59921-.29208 2.14178-.20457.81857-.48596 1.55483-.6815 2.33691-.19853.79471.77886 1.58865.77886 2.43418 0 .89106.22844 1.71479 0 2.62887-.14873.59447.13348 1.46379.48672 2.33668.35323.8729.83315 1.77497.97343 2.33669.09668.38694-2.01707 2.95039-2.23901 3.50519-.2819.7048-.69196 1.64031-1.16814 2.43418-.48125.80237.09736 1.70763.09736 2.53152 0 .85853.19456 1.80833.19456 2.72621 0 1.12776.1948 2.28516.1948 3.40784 0 1.00967-1.02473 2.44367-1.26558 3.4076-.22874.91538.01638 2.07726.3895 2.82386.27817.55663-.22694 1.97756-.3895 2.62857-.27413 1.09645.29207 2.32467.29207 3.40775v.48695c0 1.50315 1.22774 3.51088 1.55757 5.16024.18036.90238-.32579 1.40087-.48671 2.04473-.24676.98703.28766 1.73507.48671 2.53137.32258 1.29054.06341 2.40463-.48671 3.50518-.27749.55534-.28325.97715-.19471 1.46052.08876.48353.29349.97701.48671 1.46053.37351.93392.03919 2.20119.29207 3.213.21527.86127-.09736 2.42795-.09736 3.40776 0 .7064-.28481 1.04007-.48671 1.46045-.2019.42037-.31113.89713-.09735 1.75263.05128.20586.04575.47554.09735.6814.17984.71917 1.67797 2.23243 2.33628 2.72628.4595.34461.59395.71453.68144 1.07115.08793.35662.09757.71263.09757 1.26577 0 1.16818.12705 1.8793.87601 2.62878.45814.45831 1.34258.3947 1.84987 1.07108.41627.55511.38927 2.11328.38927 2.82348 0 .86682.02259 1.3647.29215 1.84989.26934.4852.76585.96066 1.36286 1.55787.25722.2573.52148.42417.77878.68148.61121.61156.72106 1.69487 1.36286 2.33676.5955.59576 1.52242 1.34548 2.33665 1.75263.49113.24567 1.00289.07554 1.46007-.19477.4571-.27029.84078-.63056 1.16836-.87638.95952-.71955 1.67161-1.39639 2.14172-2.33669.63695-1.2742 1.75992-2.66686 2.04422-4.08924.1094-.54712.26238-.90078.58422-1.16842.32175-.26756.82522-.46141 1.26549-.68155.78612-.39309 1.52879-1.24996 1.947-1.94732.4607-.7681 1.28921-1.28429 2.1418-1.07091.65795.16458 1.11692.65039 1.46014 1.16818.34329.51802.64905 1.0378.77902 1.5581.20817.833-.63448 1.85309-.97366 2.53129-.56822 1.13696-.30209 1.99299-1.07079 3.01832-.6865.91553-1.03017 2.25507-1.46029 3.11565-.58085 1.16219-.4316 2.93717-.68142 4.18681-.11111.55556-.5081 1.65992-.77886 2.33669-.31548.78885-.6815 2.28858-.6815 3.11565 0 1.09517-1.14393 1.99572-1.65487 3.01824-.6059 1.21196-1.05897 2.45303-1.55763 3.69995-.37747.94394-.83802 1.94853-1.36287 2.82355-.46622.77745-.85991 1.58986-1.07093 2.43418-.19442.77791-.7085 1.41714-1.07079 2.142-.34313.68626-.40483 1.39358-.77886 2.14208-.69473 1.38954-2.24528 3.80298-3.40729 4.96555-1.00177 1.00223-2.30136 2.36366-2.82321 3.40768-.34247.68528-.55582 1.2093-.8763 1.85012-.46713.93483-1.09082 1.98728-1.65478 3.11558-.39437.78892-1.07639 1.17921-1.46043 1.94747-.3982.79652-.57915 1.12533-.68129 1.55764 22.25946-26.08561 35.82521-59.919 35.82521-96.87793 0-18.86142-3.63977-36.83346-10.02709-53.45333-.65099.05121-1.80275.2921-2.53137.2921-.46907.00023-.81714.36209-1.0707.77881-.25365.41689-.40365.93346-.4868 1.26592-.23076.92313-.18133 1.97125.09736 2.9209.27876.94949.74477 1.81569 1.2655 2.33669.39467.39468.63334.7779.58415 1.07091-.04921.29318-.34389.48695-.97351.48695-.68179.00008-1.08006-.10882-1.36292-.29203-.2828-.18328-.43094-.43102-.7788-.77897-.65966-.66005-1.26011-1.21417-2.14178-1.65513-.77932-.38983-1.44541-.7229-2.14164-1.07108-.50063-.25039-.92626-1.6578-1.1683-2.14193-.38053-.76126-.68128-1.52838-.68128-2.4344-.00007-.61544-.62767-1.547-.87629-2.04451-.30098-.60222-.71867-1.24251-1.07078-1.94716-.39363-.78748-.75397-1.32017-1.46052-1.84989-.08995-.06771-.12338-.10776-.19457-.0975zm-184.57795 81.10503c-.10816.04735-.24166.14415-.38945.29204-.43086.43078-.33026.34688-1.07083-.09736.16036 0 2.03272 2.2522 2.43374 2.92098.18881.31468.72787.41209 1.26551.38937.53785-.02294 1.05538-.13321 1.36307-.19476.68921-.13785.86971-.54902.77872-.97358-.09101-.42478-.45352-.90831-.77872-1.07115-.84406-.42228-1.42163-.74493-2.3365-.9735-.75682-.18945-.94138-.43452-1.26554-.29204zm1.75232 6.52327c-.57584.10403-1.44236.46886-1.75232.77897-.24433.24438-.04236.70185.19463 1.16835.23701.4665.57485.85769.68147 1.07115.29843.59682 2.06718.77882 2.72594.77882.55349 0 .80429-.25008.87601-.58414.07192-.33427-.01265-.73216-.09729-1.07108-.15239-.60981-.90546-1.19767-1.26558-1.55779-.36655-.3668-.04187-.08358-.87621-.58428-.11524-.0288-.29477-.0348-.48665 0zm-7.88548 5.25789c-1.11329-.00335-2.15794.03222-3.21261.87631-1.28019 1.02412-2.83056 2.88465-3.69926 3.21292.19213.48057.34585.89668.68138 1.07085.33545.17455.84392.16232 1.36298-.09734.85063-.42539 1.41669-.61096 2.14176-.97351.75167-.37599 1.33057-.68154 2.14176-.68154 1.04095 0 1.73571.36086 2.62835.58413.67493.16869 1.18927.39977 1.94705.77889.78792.39408 1.51047.73163 2.14175 1.36326.61336.61331 1.74552.91963 2.33639 1.36287.60711.45564 1.72709.94844 2.33651 1.55794.39497.39515 1.23021 1.24798 1.84964 1.55794.65391.32691 1.21197.26012 1.75229.09736.54025-.16308 1.09891-.38945 1.84973-.38961.54765 0 1.47599.05449 2.33642.09735.86029.04285 1.6138.04133 1.94693-.29211.20698-.20692.49174-.48816.58415-.77882.09243-.29058-.0074-.53739-.58415-.6814-.82297-.20601-1.54814-.4602-2.43371-.68178-1.22557-.30639-.83756-.85678-1.84964-1.36303-1.14646-.57342-1.48609-.73657-2.82322-1.07115-.87592-.219-2.20386-.35389-2.92058-1.07085-.64479-.64508-.99056-1.80977-1.65486-2.14216-1.16186-.58101-2.05036-1.38362-3.40729-1.6552-1.35427-.27083-3.01039-.68156-4.38094-.68132-.40408 0-.69965.00083-1.07083 0zm25.99288 8.86003c-.22111-.01999-.46106.04216-.68158.09741-.90501.2263-3.26814.01369-3.40737.29204-.15425.25722-.35241.51049-.48656.77889-.31308.62623-.26052.82912-.0975.97373.16308.14446.47002.17789.77886.48679.11567.11588.3904.495.48677.87632.09632.38139.00338.77714-.38942.97365-.08771.04378-1.98252 1.00011-1.947 1.071.2567.51338.52021.68141 1.65485.68141.94434 0 1.59392.12432 2.43388.29225.56506.113 1.8011.42608 2.33634.29218 1.26588-.31665 2.21202-.65457 3.01801-1.4606.67987-.68026.69049-.36733 1.94701-.68148.43467-.10881.95547-.08944 1.2655-.19476.31017-.10532.48678-.32569.48678-.87639 0-.58458-.67372-1.36303-1.46036-1.36303-.68875 0-1.60528.02493-2.23893-.29202-.88099-.44083-.88727-1.19562-1.94707-1.46053-.49763-.12463-1.0891-.42638-1.75221-.48686zm11.09787 3.40768c-.30666-.07667-.46966.36779-.48656.87654-.0172.50853.14357 1.06151.19456 1.26561.11292.45191 1.69718.68141 2.23915.68141.5416 0 .9753.0158 1.16821-.09727.19285-.11323.13565-.3127-.0975-.7789-.32857-.65754-.52103-1.42891-1.16807-1.75263-.53427-.26702-1.26736-.19453-1.84979-.19476zm8.76166.68155c-.15957.11816-.2496.54698-.19472.97374.05496.42683.27712.79941.97358.97372.68614.17167 1.69838.11065 2.14172 0 .35996-.09004.22028-.38359-.09743-.77912-.31758-.39522-.73879-.80754-1.07079-.97335-.39863-.19955-1.15947-.19499-1.655-.19499-.04031-.02014-.05167-.03351-.09736 0zm-31.83385.97374c-.12958.00782-.35809.09734-.48678.09734-.12959-.10623-1.50284-.02735-2.14164.29233-.44641.22303-.73789.43976-.87622.68133-.13811.24149-.14544.58512.09729 1.07107.25356.50708.28571.84189.38957 1.071.10348.22896.30112.3431.87622.48687.93394.23343 1.77465.52433 2.62828.09742.6599-.3301.9735-1.28347.97365-2.04466 0-.93954-.26283-1.45323-1.07094-1.65536-.12488-.03123-.25984-.10509-.38943-.09734zm35.92257 3.5051c-.49778.10577-.41141.8542.0975 1.36319.60718.6073 1.24315.40068 1.65487.19475.44835-.22432.27771-.59613-.09729-.87631-.37508-.28017-.94493-.48109-.97357-.48679-.29357-.14689-.51551-.23002-.68151-.19484zm3.01786 4.28408c-.26134.20251-1.07071.86643-1.07071 1.26584 0 .38025.39587.37728.87607.2921.48021-.08549.9928-.25305 1.07094-.2921.45082-.22562-.36289-.93665-.7788-1.26584-.01473.00661-.07289-.01201-.0975 0zm.58422 3.50525c.01631.02698.07858.16498.09728.19462.07261-.06072.10872-.18961.09751-.19462-.0095-.00432-.10933-.04285-.19479 0zm.09728.19462c-.34388.28838-1.42349 1.02145-1.55756 1.55779-.11411.45661 1.901-.07417 1.947-.0972.45208-.22615-.09101-.98779-.38944-1.46059zm4.08888 1.07091c-.0445.46157-.52956 1.72056-.09743 2.04482.63738.4782.92811.34218 1.07086.09726.14274-.24484.12763-.62099 0-.87616-.24378-.48778-.52613-.80906-.97343-1.26592z" fill="url(#b)"/><path d="m485.92904 359.95523s-39.0807-3.78733-65.96911 15.65938c-26.8884 19.44672-41.5845 62.1275-72.81531 75.06372-62.46162 25.87245-111.06203 12.76669-111.06203 12.76669-28.56318-68.95763 4.22071-148.10495 73.17832-176.66813 68.95763-28.56317 148.10495 4.22071 176.66813 73.17834z" fill="url(#a)"/></g></svg>